<?xml version="1.0" encoding="UTF-8"?><svg id="a" xmlns="http://www.w3.org/2000/svg" xmlns:xlink="http://www.w3.org/1999/xlink" viewBox="0 0 512 512.26"><defs><clipPath id="b"><path id="c" d="M116.94.26h276.42c65.48,0,118.64,53.16,118.64,118.64v276.42c0,64.54-52.4,116.94-116.94,116.94H116.94c-64.54,0-116.94-52.4-116.94-116.94V117.2C0,52.66,52.4.26,116.94.26Z" style="fill:none; stroke-width:0px;"/></clipPath></defs><g style="clip-path:url(#b);"><g id="d"><rect width="512" height="512" style="fill:#eee; stroke-width:0px;"/></g><g id="e"><rect y=".26" width="512" height="512" style="fill:#eee; stroke-width:0px;"/></g><rect id="f" x="199.82" y=".26" width="70" height="512" style="fill:#386edc; stroke-width:0px;"/><polygon id="g" points="366.97 512.26 199.82 345.11 199.82 .26 129.82 .26 129.82 275.11 129.82 374.11 267.97 512.26 366.97 512.26" style="fill:#ea283a; stroke-width:0px;"/><polygon id="h" points="465.96 512.26 339.82 386.12 339.82 .26 269.82 .26 269.82 316.12 269.82 415.11 269.82 415.11 366.97 512.26 465.96 512.26" style="fill:#27b376; stroke-width:0px;"/><g id="i"><path d="M72.08,329.32c-.29-12.7.87-24.39,2.64-36.06.6-3.96,2.34-5.92,6.01-6.67,7.93-1.62,15.82-3.4,23.78-4.84,4.07-.74,6.2-2.24,6.93-6.85,2.11-13.28,7.11-25.5,16.01-35.81,2.22-2.57,2.3-4.35-.14-6.94-4.8-5.08-9.09-10.63-13.79-15.81-1.87-2.05-2.18-3.7-.94-6.27,19.25-39.85,48.67-69.62,88.11-89.64,4.17-2.11,5.62-1.52,7.23,2.92,2.6,7.2,2.61,13.6,0,21.1-9.98,28.6-11.17,57.52,2.29,85.39,16.57,34.29,44.93,51.41,82.63,53.31,4.96.25,7.11.98,6.41,6.67-4.5,36.3,10.68,63.87,38.54,85.72,9.86,7.73,20.05,14.98,30.46,21.92,2.35,1.57,3.53,2.62,1.03,5.34-21.51,23.45-46.6,41.07-78.15,48.06-40.5,8.97-77.66-.27-112.5-21.34-7.26-4.39-14.19-9.29-20.4-15.06-2.46-2.29-4.34-2.45-7.2-.77-10.94,6.43-22.08,12.51-32.99,18.98-3.09,1.83-4.92,1.68-7.36-1.09-20.38-23.19-32.43-50.15-36.92-80.59-1.1-7.48-1.65-15-1.67-21.67Z" style="fill:#42342b; stroke-width:0px;"/><path d="M387.83,67.03c-3.74,8.57-6.68,15.64-9.91,22.59-3.46,7.45-3.6,15.28-3.4,23.23.09,3.8,2.2,2.33,4.03,1.81,20.5-5.83,41-11.66,61.5-17.48,14.13-4.01,28.26-8.02,42.99-12.21-.82,2.32-2.45,3.11-3.72,4.13-22.43,18.2-44.86,36.42-67.37,54.52-2.46,1.98-3.86,4.05-4.12,7.26-1.08,13.41-1.54,26.8.07,40.2.28,2.34,1.36,4.16,2.59,5.98,11.69,17.4,23.05,34.98,38.12,49.88,11.23,11.1,18.31,24.41,16.3,41.05-1.54,12.8-7.14,24.03-14.66,34.07-3.97,5.3-11.3,4.98-17.47,5.05-14.72.17-28.85-2.7-42.12-9.42-3.78-1.91-6.22-4.55-8.07-8.45-13.27-27.93-34.55-45.75-65.59-50.75-7.48-1.21-15.11-1.47-22.54-.04-18.12,3.48-32.97-3.58-46.15-14.62-20.77-17.4-28.27-40.68-26.91-67.04,1.21-23.47,9.73-44.72,21.08-65,1.49-2.67,3.7-3.63,6.24-3.79,9.93-.61,15.69-5.57,20.03-14.73,8.6-18.17,22.88-31.81,38.9-43.67,3.02-2.24,3.51-1.01,3.92,1.91,1.92,13.68,3.93,27.36,1.93,41.2-.62,4.31.86,5.09,4.96,5.17,9.4.19,17.3-2.14,24.54-8.68,12.28-11.09,28.29-15.22,44.82-22.19Z" style="fill:#42342b; stroke-width:0px;"/><path d="M255.32,428c-30.99-.48-61.67-14.06-87.99-38.59-9.82-9.15-9.75-9.22-21.1-2.62-7.46,4.35-15.06,8.48-22.35,13.12-3.47,2.21-5.03,1.43-7.09-1.85-16.35-26.1-22.73-54.7-20.9-85.38.58-9.72.8-9.68,10.18-11.63,5.79-1.2,11.67-2.35,16.93-5.16,4.28-2.28,6.47-.78,9.2,2.75,18.2,23.55,39.41,43.59,65.92,57.11,29.22,14.9,59.67,18.67,91.33,9.76,3.4-.96,5.71-.78,8.2,2.41,8.67,11.11,19.32,20.12,30.47,28.49,2.83,2.12,3.51,3.18.33,5.72-20.08,16.07-42.56,25.35-73.14,25.87Z" style="fill:#eee; stroke-width:0px;"/><path d="M180.22,160.15c-1.47,12.52-2.48,23.47-1.88,34.53,2.88,53.85,40.06,97.46,92.89,108.46,4.01.83,5.1,2.46,5.29,6.41.59,11.83,3.03,23.35,7.93,34.19,1.7,3.75,1.04,4.85-2.99,5.7-33.79,7.13-63.69-2.09-91.13-21.48-20.99-14.83-37.83-33.68-52.17-54.9-2.08-3.08-1.92-5.6-.47-8.65,4.41-9.31,11.53-16.59,18.21-24.14,3.16-3.58,3.45-5.94,0-9.52-5.49-5.68-10.42-11.9-15.56-17.91-1.14-1.33-2.76-2.47-1.46-4.72,10.49-18.15,23.77-33.87,41.36-47.97Z" style="fill:#eee; stroke-width:0px;"/><path d="M290,100.38c1.36,14.83,7.23,19.97,20.69,19.61,4.05-.11,8.09-.28,12.14-.38,10.34-.27,20.78-.19,29.21-10.08.82,9.8.1,18.79,7.75,24.88,7.71,6.14,16.05,5.02,24.76,1.78-5.15,7.43-5.96,14.24-.02,21.06,1.19,1.37.68,3.2.55,4.8-.87,10.68-.11,21.31.92,31.94.47,4.82,1.85,9.21,4.63,13.35,13.16,19.51,26.02,39.15,42.81,55.99,12.42,12.46,12.72,24.17,3.3,38.95-1.56,2.46-3.54,3.07-6.02,2.82-4.75-.48-9.49-1.02-14.22-1.71-8.8-1.29-14.59-5.48-19.32-13.84-22.51-39.78-64.55-59.46-109.62-52.47-4.83.75-9.13-.97-13.25-2.87-19.91-9.2-29.17-25.77-30.73-46.83-1.49-20.24,5.08-38.77,13.97-56.6,1.04-2.08,2.72-2.92,4.8-3.2,11.09-1.45,18.44-7.49,22.56-17.83,1.13-2.83,2.91-5.4,5.09-9.37Z" style="fill:#eee; stroke-width:0px;"/><path d="M347.81,204.42s-13.86,3.77-27.32-3.84c-13.46-7.6-17.4-21.42-17.4-21.42,0,0,13.86-3.76,27.32,3.84,13.46,7.6,17.4,21.42,17.4,21.42Z" style="fill:#42342b; stroke-width:0px;"/></g></g></svg>